<?xml version="1.0" standalone="no"?>
<!DOCTYPE svg PUBLIC "-//W3C//DTD SVG 20010904//EN"
 "http://www.w3.org/TR/2001/REC-SVG-20010904/DTD/svg10.dtd">
<svg version="1.0" xmlns="http://www.w3.org/2000/svg"
 width="920.000000pt" height="920.000000pt" viewBox="0 0 920.000000 920.000000"
 preserveAspectRatio="xMidYMid meet">

<g transform="translate(0.000000,920.000000) scale(0.100000,-0.100000)"
fill="#000000" stroke="none">
<path d="M1922 7449 c-71 -28 -144 -101 -171 -174 l-21 -56 2 -2637 3 -2637
29 -53 c36 -65 82 -107 156 -141 l55 -26 1410 0 1410 0 3 1113 2 1112 -375 0
-375 0 0 435 0 435 375 0 375 0 0 386 c0 299 4 410 16 492 72 487 384 808 864
889 144 24 731 15 873 -13 l27 -6 0 -387 0 -387 -212 0 c-405 2 -489 -14 -579
-104 -36 -36 -53 -63 -70 -116 -21 -65 -23 -90 -27 -411 l-4 -343 431 0 c374
0 431 -2 431 -15 0 -17 -97 -774 -105 -822 l-6 -33 -374 0 -375 0 2 -1112 3
-1113 760 0 c709 0 763 1 812 18 70 24 145 93 180 165 l28 57 0 2630 0 2630
-26 55 c-34 74 -76 120 -141 156 l-53 29 -2640 2 c-2634 2 -2640 2 -2693 -18z"/>
</g>
</svg>
