<?xml version="1.0" standalone="no"?>
<!DOCTYPE svg PUBLIC "-//W3C//DTD SVG 20010904//EN"
 "http://www.w3.org/TR/2001/REC-SVG-20010904/DTD/svg10.dtd">
<svg version="1.0" xmlns="http://www.w3.org/2000/svg"
 width="532.000000pt" height="481.000000pt" viewBox="0 0 532.000000 481.000000"
 preserveAspectRatio="xMidYMid meet">

<g transform="translate(0.000000,481.000000) scale(0.100000,-0.100000)"
fill="#000000" stroke="none">
<path d="M2535 4729 c-103 -10 -329 -47 -363 -60 -13 -5 -32 -9 -43 -9 -35 0
-332 -111 -439 -164 -384 -193 -683 -457 -916 -811 -211 -321 -327 -649 -369
-1039 -51 -474 51 -970 283 -1377 11 -20 26 -47 34 -60 7 -13 19 -29 25 -37 7
-7 13 -17 13 -22 0 -5 6 -15 13 -22 7 -7 32 -40 54 -73 37 -55 73 -95 73 -82
0 3 -29 47 -64 98 -245 360 -379 768 -393 1199 -11 352 33 613 160 945 153
401 487 806 872 1057 212 138 510 265 725 309 30 6 75 15 100 21 93 20 290 38
423 38 294 0 586 -56 852 -163 192 -78 339 -165 539 -322 28 -22 64 -47 80
-55 41 -21 201 -180 291 -290 290 -354 456 -749 510 -1215 39 -340 -6 -685
-137 -1045 -41 -112 -161 -354 -194 -391 -8 -8 -14 -19 -14 -23 0 -8 -53 -87
-81 -121 -9 -11 -24 -33 -34 -50 -17 -29 -17 -28 14 5 54 59 148 195 211 306
33 58 60 107 60 110 0 2 16 38 35 79 65 141 123 332 163 535 43 214 45 560 6
785 -30 168 -97 402 -151 525 -71 161 -173 343 -256 458 -117 161 -319 369
-467 482 -91 69 -198 140 -211 140 -5 0 -9 4 -9 9 0 10 -311 165 -365 181 -22
6 -49 15 -60 20 -244 101 -667 157 -970 129z"/>
<path d="M4360 3875 c13 -14 25 -25 27 -25 9 0 -33 49 -41 50 -5 0 1 -11 14
-25z"/>
<path d="M667 3845 c-74 -89 -179 -255 -252 -400 -124 -244 -203 -512 -236
-798 -17 -150 -6 -507 20 -647 82 -442 260 -820 534 -1139 250 -289 545 -501
922 -661 187 -79 451 -139 705 -161 311 -26 722 32 1010 143 65 25 294 135
366 176 195 112 431 310 586 492 40 47 76 87 80 88 5 2 8 8 8 14 0 5 7 17 16
25 8 9 45 61 80 116 174 268 270 495 333 784 51 238 55 276 55 518 0 339 -41
558 -159 865 -43 111 -148 322 -169 339 -9 7 -16 17 -16 22 0 8 -63 111 -82
134 -5 5 -20 24 -33 40 -14 17 -25 34 -25 39 0 5 -3 7 -6 3 -6 -5 31 -75 46
-87 6 -5 38 -55 72 -115 33 -55 122 -230 134 -260 6 -16 25 -64 42 -105 172
-421 201 -996 71 -1445 -201 -698 -676 -1233 -1349 -1522 -116 -50 -343 -115
-505 -145 -102 -19 -157 -22 -365 -22 -153 -1 -279 4 -335 12 -121 18 -320 67
-474 117 -85 28 -421 192 -421 206 0 5 -5 9 -11 9 -16 0 -127 80 -249 179
-355 290 -609 669 -748 1116 -40 128 -78 340 -93 526 -31 367 66 840 240 1174
84 160 131 240 176 299 19 26 35 49 35 53 0 3 7 15 17 25 9 10 14 20 12 22 -2
3 -17 -11 -32 -29z"/>
<path d="M2691 3016 c-41 -42 -51 -74 -24 -83 17 -6 103 82 103 106 0 34 -32
25 -79 -23z"/>
<path d="M1520 2951 c0 -89 -9 -113 -33 -93 -7 6 -32 17 -57 26 -116 40 -239
-55 -240 -185 0 -72 34 -128 100 -161 62 -32 88 -34 152 -12 55 18 102 67 117
120 11 41 15 351 5 378 -3 9 -15 16 -25 16 -17 0 -19 -8 -19 -89z m-53 -144
c31 -29 37 -41 41 -89 5 -70 -15 -111 -68 -138 -45 -23 -59 -24 -110 -9 -26 8
-45 23 -64 52 -65 101 -3 217 117 217 40 0 53 -5 84 -33z"/>
<path d="M1697 3018 c-24 -13 -21 -45 4 -59 27 -14 54 9 45 39 -8 25 -27 33
-49 20z"/>
<path d="M3212 3018 c-17 -17 -15 -55 3 -62 38 -14 66 26 39 55 -20 22 -26 23
-42 7z"/>
<path d="M2287 2993 c-4 -3 -7 -30 -7 -59 0 -50 -1 -53 -27 -56 -41 -4 -43
-36 -4 -49 l31 -11 0 -93 c0 -144 30 -194 120 -203 45 -4 50 -3 50 16 0 21
-18 32 -51 32 -10 0 -28 9 -39 20 -17 17 -20 33 -20 125 0 77 3 105 13 106 56
3 68 6 78 16 20 20 -8 43 -52 43 l-39 0 0 44 c0 24 -3 51 -6 60 -6 16 -35 22
-47 9z"/>
<path d="M2955 2988 c-2 -7 -6 -33 -7 -58 -3 -38 -6 -45 -26 -48 -31 -5 -50
-40 -25 -48 47 -14 48 -17 53 -133 l5 -113 37 -34 c30 -27 46 -34 78 -34 28 0
43 5 47 16 7 20 -13 34 -49 34 -48 0 -68 43 -68 148 0 86 10 116 36 111 5 -1
22 -1 37 0 23 1 28 5 25 24 -2 18 -11 23 -48 27 l-45 5 -5 55 c-4 42 -9 56
-23 58 -9 2 -19 -2 -22 -10z"/>
<path d="M1967 2885 c-64 -22 -100 -59 -118 -123 -34 -123 46 -244 166 -246
56 -1 135 30 135 54 0 29 -18 34 -48 14 -18 -12 -45 -18 -81 -17 -50 0 -58 4
-88 37 -22 24 -33 45 -31 59 3 23 10 24 229 26 55 1 64 15 49 72 -26 96 -126
154 -213 124z m130 -80 c20 -20 33 -42 31 -52 -3 -16 -16 -18 -113 -18 l-110
0 3 25 c1 14 16 37 32 53 24 21 40 27 76 27 39 0 51 -5 81 -35z"/>
<path d="M3492 2886 c-107 -23 -164 -160 -113 -272 43 -94 168 -129 259 -74
34 21 42 44 18 53 -7 3 -24 -2 -37 -11 -32 -22 -116 -21 -151 2 -80 52 -74
206 10 245 41 19 98 13 130 -14 31 -26 57 -32 66 -16 11 16 -5 40 -41 62 -47
29 -90 37 -141 25z"/>
<path d="M3887 2887 c-117 -37 -170 -162 -116 -274 45 -92 170 -128 261 -75
25 15 29 14 46 -1 44 -40 54 -15 49 124 -3 83 -8 103 -30 142 -40 69 -136 107
-210 84z m128 -68 c39 -27 55 -61 55 -115 0 -61 -14 -90 -57 -118 -97 -64
-223 16 -209 132 10 79 56 121 135 122 30 0 55 -7 76 -21z"/>
<path d="M1694 2877 c-2 -7 -3 -89 -2 -182 3 -168 3 -170 26 -173 l22 -3 0
179 c0 155 -2 181 -16 186 -22 8 -24 8 -30 -7z"/>
<path d="M2620 2883 c-70 -27 -110 -94 -110 -185 1 -52 5 -70 28 -103 39 -55
85 -80 152 -80 59 0 130 33 130 61 0 22 -15 22 -78 -1 -82 -29 -172 16 -172
86 l0 29 140 0 140 0 0 43 c-1 52 -41 115 -90 139 -33 17 -108 23 -140 11z
m139 -69 c18 -15 31 -35 31 -49 0 -18 -7 -24 -37 -29 -57 -9 -138 -7 -167 4
-25 9 -25 10 -9 39 38 65 126 82 182 35z"/>
<path d="M3206 2853 c-8 -50 -8 -228 0 -287 5 -35 11 -46 24 -46 27 0 30 19
30 185 0 166 -3 185 -30 185 -12 0 -19 -11 -24 -37z"/>
<path d="M2694 2282 c-6 -4 -39 -72 -74 -152 -34 -80 -70 -163 -80 -185 -10
-23 -22 -53 -25 -68 -6 -24 -4 -27 19 -27 22 0 30 9 53 60 15 34 33 61 42 61
66 7 111 7 144 3 34 -5 40 -11 65 -62 22 -46 32 -58 55 -60 34 -4 34 3 -2 80
-15 35 -39 86 -51 113 -13 28 -40 88 -61 135 -38 84 -64 116 -85 102z m36
-125 c0 -7 9 -33 21 -56 29 -60 21 -73 -43 -69 -50 3 -53 4 -50 28 5 47 36
110 55 110 9 0 17 -6 17 -13z"/>
<path d="M1006 2249 c-62 -42 -94 -85 -105 -145 -35 -185 143 -314 334 -243
46 17 55 24 55 45 0 28 -13 30 -63 9 -90 -38 -211 -6 -246 64 -74 143 54 283
219 241 94 -24 90 -24 90 -1 0 35 -69 61 -161 61 -68 0 -80 -3 -123 -31z"/>
<path d="M1381 2267 c-8 -10 -11 -72 -9 -213 l3 -199 25 0 25 0 0 210 c0 184
-2 210 -16 213 -9 1 -21 -4 -28 -11z"/>
<path d="M1542 2272 c-9 -7 -12 -56 -10 -213 l3 -204 25 0 25 0 3 153 c2 119
5 153 15 150 7 -2 37 -30 67 -63 29 -33 83 -93 119 -134 99 -111 101 -112 124
-109 22 3 22 6 25 211 2 179 0 208 -13 213 -8 4 -22 1 -31 -6 -12 -11 -15 -39
-13 -159 0 -80 -3 -147 -8 -148 -9 -3 -59 50 -217 230 -77 86 -89 94 -114 79z"/>
<path d="M2051 2266 c-8 -9 -11 -74 -9 -212 l3 -199 28 -3 27 -3 0 155 c0 128
3 156 14 156 8 0 16 -4 18 -9 2 -4 45 -54 97 -109 51 -56 107 -120 125 -142
30 -40 65 -58 85 -45 7 4 11 77 11 210 0 178 -2 204 -16 209 -38 14 -44 -10
-44 -165 0 -83 -4 -149 -9 -149 -5 0 -54 51 -108 113 -127 145 -187 207 -200
207 -6 0 -16 -6 -22 -14z"/>
<path d="M2992 2272 c-9 -7 -12 -56 -10 -213 l3 -204 25 0 25 0 5 155 c3 85 9
154 13 153 5 -1 33 -33 64 -70 31 -37 61 -68 68 -68 7 0 38 30 70 68 31 37 61
67 66 67 5 0 10 -69 11 -152 l3 -153 25 0 25 0 0 210 c0 207 0 210 -22 213
-16 2 -38 -17 -93 -82 -40 -47 -78 -86 -85 -86 -6 0 -32 26 -57 58 -82 104
-106 122 -136 104z"/>
<path d="M3594 2261 c-42 -19 -84 -62 -110 -114 -11 -21 -15 -49 -12 -96 7
-134 108 -219 247 -208 88 6 134 31 186 101 27 35 30 46 30 116 0 68 -3 81
-28 118 -16 22 -47 53 -68 68 -35 24 -52 28 -122 31 -64 2 -91 -1 -123 -16z
m167 -43 c58 -17 105 -67 112 -119 8 -58 -1 -98 -29 -136 -33 -44 -77 -63
-144 -63 -47 0 -64 5 -97 29 -118 85 -83 264 56 292 54 10 60 10 102 -3z"/>
<path d="M4032 2268 c-14 -14 -17 -385 -3 -406 5 -8 17 -12 27 -10 17 3 19 16
22 156 3 161 8 175 47 130 10 -13 55 -64 99 -114 45 -49 98 -109 118 -133 27
-31 44 -42 60 -39 23 3 23 4 26 211 2 179 0 208 -13 213 -8 4 -22 1 -30 -6
-12 -10 -15 -42 -15 -161 0 -83 -4 -149 -9 -149 -5 0 -69 68 -142 151 -114
129 -154 169 -171 169 -2 0 -9 -5 -16 -12z"/>
<path d="M915 940 c3 -5 8 -10 11 -10 2 0 4 5 4 10 0 6 -5 10 -11 10 -5 0 -7
-4 -4 -10z"/>
</g>
</svg>
